<svg width="50" height="50" viewBox="0 0 50 50" fill="none" xmlns="http://www.w3.org/2000/svg">
<path d="M48.4499 42.549L36.6066 32.4758C35.3816 31.3743 34.0723 30.868 33.0145 30.9165C35.8097 27.6415 37.4987 23.3932 37.4987 18.7496C37.4987 8.39512 29.1037 0 18.7494 0C8.39503 0 0 8.39512 0 18.7496C0 29.104 8.39503 37.4991 18.7494 37.4991C23.393 37.4991 27.6412 35.8101 30.9161 33.0149C30.8677 34.0726 31.3739 35.382 32.4755 36.607L42.5485 48.4504C44.2735 50.366 47.0906 50.5285 48.8093 48.8098C50.528 47.0911 50.367 44.274 48.4499 42.549ZM18.7509 31.2508C11.848 31.2508 6.25135 25.6541 6.25135 18.7511C6.25135 11.8482 11.848 6.25142 18.7509 6.25142C25.6538 6.25142 31.2505 11.8482 31.2505 18.7511C31.2505 25.6541 25.6538 31.2508 18.7509 31.2508Z" fill="#5A5A5A"/>
</svg>
