<svg aria-hidden="true" style="position: absolute; width: 0; height: 0; overflow: hidden;" version="1.1" xmlns="http://www.w3.org/2000/svg" xmlns:xlink="http://www.w3.org/1999/xlink">
<defs>
<symbol id="icon-attention" viewBox="0 0 32 32">
<path d="M23.813 21.256l-3.3-6.081-3.188-5.887c-0.257-0.478-0.754-0.797-1.325-0.797s-1.068 0.319-1.321 0.789l-0.004 0.008-3.188 5.887-3.3 6.081c-0.116 0.209-0.184 0.459-0.184 0.725 0 0.835 0.675 1.513 1.509 1.519h12.982c0.833-0.003 1.507-0.679 1.507-1.512 0-0.268-0.070-0.52-0.192-0.739l0.004 0.008zM15.188 13.537q0.094-0.081 0.344-0.081h0.956c0.169 0 0.281 0.025 0.35 0.081s0.094 0.15 0.087 0.294l-0.188 4.487c-0.006 0.144-0.044 0.238-0.1 0.288s-0.169 0.081-0.337 0.081h-0.588c-0.162 0-0.275-0.031-0.331-0.081s-0.094-0.144-0.1-0.288l-0.181-4.494c0-0.137 0.025-0.238 0.088-0.287zM17.006 20.262q0 0.438-0.188 0.6c-0.125 0.106-0.356 0.163-0.688 0.163h-0.256c-0.338 0-0.563-0.063-0.688-0.163s-0.188-0.313-0.188-0.6v-0.181q0-0.438 0.188-0.6c0.125-0.106 0.35-0.156 0.688-0.156h0.25c0.337 0 0.563 0.050 0.688 0.156s0.188 0.313 0.188 0.6z"></path>
</symbol>
<symbol id="icon-cross-dark" viewBox="0 0 32 32">
<path fill="#bebdbd" style="fill: var(--color1, #bebdbd)" opacity="0.6" d="M26 0l-10 10-10-10-6 6 10 10-10 10 6 6 10-10 10 10 6-6-10-10 10-10-6-6z"></path>
</symbol>
<symbol id="icon-cross-light" viewBox="0 0 32 32">
<path fill="#5a5a5a" style="fill: var(--color2, #5a5a5a)" opacity="0.6" d="M26 0l-10 10-10-10-6 6 10 10-10 10 6 6 10-10 10 10 6-6-10-10 10-10-6-6z"></path>
</symbol>
<symbol id="icon-search" viewBox="0 0 32 32">
<path fill="#5a5a5a" style="fill: var(--color2, #5a5a5a)" d="M31.008 27.231l-7.58-6.447c-0.784-0.705-1.622-1.029-2.299-0.998 1.789-2.096 2.87-4.815 2.87-7.787 0-6.627-5.373-12-12-12s-12 5.373-12 12c0 6.627 5.373 12 12 12 2.972 0 5.691-1.081 7.787-2.87-0.031 0.677 0.293 1.515 0.998 2.299l6.447 7.58c1.104 1.226 2.907 1.33 4.007 0.23s0.997-2.903-0.23-4.007zM12.001 20c-4.418 0-8-3.582-8-8s3.582-8 8-8 8 3.582 8 8c0 4.418-3.582 8-8 8z"></path>
</symbol>
<symbol id="icon-star-dark-checked" viewBox="0 0 32 32">
<path fill="#bebdbd" style="fill: var(--color1, #bebdbd)" d="M15.661 0.078c-0.047 0.049-0.17 0.246-0.276 0.44-0.103 0.194-0.302 0.56-0.44 0.815-0.276 0.498-0.769 1.507-1.015 2.077-0.238 0.548-1.655 3.775-1.883 4.291-0.334 0.748-0.663 1.415-0.819 1.661-0.22 0.345-0.531 0.661-0.777 0.794-0.355 0.191-1.135 0.385-2.755 0.683-0.241 0.046-0.651 0.12-0.909 0.169s-0.772 0.145-1.144 0.212c-3.256 0.603-3.77 0.708-4.762 0.96-0.707 0.178-0.845 0.234-0.874 0.354s0.035 0.222 0.408 0.646c0.29 0.326 0.537 0.634 0.769 0.954 0.211 0.292 0.907 0.981 1.499 1.48 0.062 0.052 0.273 0.234 0.469 0.4s0.607 0.514 0.912 0.772c0.308 0.258 0.596 0.505 0.643 0.544s0.249 0.212 0.452 0.385 0.393 0.335 0.425 0.363c0.032 0.028 0.2 0.169 0.367 0.314 0.17 0.142 0.314 0.268 0.323 0.277s0.1 0.089 0.205 0.181c0.293 0.258 0.88 0.892 1.012 1.095 0.329 0.511 0.464 0.966 0.461 1.554 0 0.474-0.067 0.938-0.317 2.215-0.106 0.532-0.202 1.031-0.217 1.108s-0.106 0.548-0.205 1.046c-0.402 2.036-0.625 3.209-0.701 3.685-0.132 0.803-0.264 2.11-0.229 2.252 0.059 0.246 0.2 0.255 0.725 0.052 0.202-0.077 0.525-0.191 0.719-0.255 0.194-0.061 0.472-0.16 0.616-0.218 0.249-0.102 1.279-0.628 1.355-0.692 0.021-0.015 0.153-0.095 0.293-0.175 0.141-0.083 0.352-0.203 0.464-0.271 0.191-0.114 1.432-0.843 2.024-1.187 0.147-0.086 0.37-0.215 0.499-0.292 1.508-0.883 2.042-1.141 2.684-1.304 0.235-0.058 0.904-0.049 1.159 0.012 0.59 0.151 0.951 0.314 2.362 1.077 1.039 0.563 1.37 0.744 1.57 0.855 0.114 0.065 0.402 0.221 0.64 0.351 0.241 0.129 0.484 0.265 0.543 0.302 0.246 0.145 1.443 0.763 1.619 0.834 0.349 0.142 0.739 0.262 1.241 0.375 0.123 0.028 0.361 0.099 0.525 0.157 0.525 0.185 0.669 0.132 0.669-0.252 0-0.566-0.182-1.877-0.516-3.698-0.17-0.932-0.361-1.981-0.528-2.889-0.578-3.178-0.598-3.301-0.619-3.885-0.012-0.415-0.009-0.465 0.062-0.717 0.076-0.271 0.282-0.738 0.34-0.775 0.018-0.012 0.041-0.046 0.053-0.077 0.041-0.114 0.546-0.686 0.857-0.969 0.258-0.237 1.074-0.963 1.168-1.040 0.059-0.046 0.114-0.095 0.123-0.108s0.082-0.077 0.161-0.142c0.082-0.068 0.161-0.135 0.176-0.154 0.018-0.018 0.097-0.089 0.176-0.154 0.082-0.068 0.17-0.145 0.197-0.169 0.026-0.028 0.067-0.065 0.088-0.080 0.085-0.071 0.364-0.311 0.405-0.354 0.026-0.025 0.097-0.089 0.158-0.138 0.062-0.052 0.129-0.108 0.147-0.123 0.018-0.018 0.106-0.092 0.194-0.169s0.167-0.145 0.176-0.154c0.009-0.009 0.088-0.077 0.176-0.154 0.17-0.145 0.308-0.271 0.443-0.4 0.044-0.043 0.173-0.16 0.288-0.258 0.229-0.206 0.827-0.84 1.030-1.092 0.229-0.289 0.631-0.751 1.036-1.188 0.2-0.218 0.238-0.289 0.22-0.418-0.015-0.12-0.17-0.169-0.845-0.286-1.297-0.222-1.778-0.28-6.322-0.772-2.086-0.225-2.828-0.332-3.227-0.468-0.516-0.172-0.792-0.477-1.264-1.394-0.182-0.357-1.256-2.621-1.763-3.722-0.569-1.237-1.435-3.042-1.643-3.43-0.505-0.938-0.877-1.597-0.965-1.695-0.111-0.126-0.188-0.132-0.305-0.022z"></path>
</symbol>
<symbol id="icon-star-dark-empty" viewBox="0 0 32 32">
<path fill="none" stroke="#bebdbd" style="stroke: var(--color1, #bebdbd)" stroke-linejoin="miter" stroke-linecap="butt" stroke-miterlimit="4" stroke-width="1.28" d="M15.508 1.638h-0c0.042-0.078 0.091-0.168 0.141-0.261 0.054-0.099 0.11-0.202 0.161-0.297 0.153 0.272 0.342 0.618 0.557 1.018 0.197 0.367 1.055 2.155 1.625 3.395l0 0c0.507 1.1 1.586 3.375 1.774 3.745l0.001 0.002c0.24 0.466 0.459 0.835 0.711 1.113 0.274 0.302 0.568 0.477 0.919 0.594 0 0 0.001 0 0.001 0l0.203-0.607c0.399 0.135 1.141 0.243 3.227 0.468l-9.321-9.171zM15.508 1.638l-0.003 0.006M15.508 1.638l-0.003 0.006M15.505 1.643c-0.265 0.479-0.749 1.469-0.988 2.021l-0 0M15.505 1.643l-0.988 2.021M14.517 3.665c-0.238 0.549-1.656 3.778-1.885 4.296l-0.001 0.002M14.517 3.665l-1.886 4.298M12.631 7.963c-0.332 0.742-0.678 1.451-0.862 1.742l-0.002 0.003M12.631 7.963l-0.863 1.744M11.767 9.707c-0.254 0.398-0.637 0.811-1.014 1.013-0.253 0.136-0.603 0.247-1.052 0.359-0.461 0.114-1.075 0.24-1.887 0.39M11.767 9.707l-11.001 3.164M0.414 13.18c0.29 0.326 0.537 0.634 0.769 0.954M0.414 13.18c-0.373-0.425-0.437-0.526-0.408-0.646s0.167-0.175 0.874-0.354c0.992-0.252 1.505-0.357 4.762-0.96 0.373-0.068 0.886-0.163 1.144-0.212l-5.604 3.126M0.414 13.18l0.353-0.309M0.414 13.18l0.345-0.308c-0.050 0.013-0.094 0.025-0.134 0.037-0.106 0.030-0.164 0.050-0.196 0.063-0.006 0.002-0.010 0.004-0.012 0.005M1.183 14.134c0.211 0.292 0.907 0.981 1.499 1.48M1.183 14.134l1.499 1.48M0.767 12.871c0.055-0.015 0.117-0.031 0.185-0.048M0.767 12.871l3.71 3.426M0.417 12.978c-0.002 0.001-0.003 0.002-0.003 0.002s0.001-0.001 0.003-0.002zM0.417 12.978c0.008-0.004 0.033-0.019 0.063-0.045s0.064-0.064 0.093-0.113c0.029-0.049 0.046-0.096 0.055-0.133 0.005-0.022 0.011-0.054 0.012-0.094s-0.004-0.078-0.012-0.113c-0.010-0.045-0.025-0.073-0.029-0.081M0.599 12.399c-0.001-0.001-0.001-0.002-0.001-0.002s0 0.001 0.001 0.002zM0.599 12.399c0 0.001 0.001 0.001 0.001 0.002 0.009 0.015 0.032 0.048 0.084 0.111 0.050 0.062 0.118 0.14 0.209 0.244 0.020 0.022 0.039 0.044 0.058 0.066M0.952 12.823c0.027-0.007 0.056-0.014 0.085-0.022l0.001-0c0.967-0.246 1.46-0.347 4.719-0.951M0.952 12.823c0.279 0.317 0.521 0.621 0.749 0.936l0 0.001c0.163 0.225 0.807 0.873 1.392 1.365l0.002 0.002c0.022 0.019 0.058 0.049 0.102 0.087 0.095 0.081 0.231 0.197 0.366 0.312 0.197 0.166 0.607 0.513 0.912 0.772M5.758 11.85c-0 0-0.001 0-0.001 0l-0.114-0.63 0.117 0.629c-0 0-0.001 0-0.001 0zM5.758 11.85c0.374-0.068 0.888-0.163 1.148-0.213 0.105-0.020 0.271-0.051 0.439-0.082 0.179-0.033 0.36-0.066 0.469-0.087M7.814 11.468c-0.001 0-0.002 0-0.002 0l-0.116-0.629 0.121 0.628c-0.001 0-0.001 0-0.002 0zM4.476 16.297c0.273 0.229 0.53 0.448 0.619 0.524 0.012 0.010 0.021 0.018 0.026 0.022v0l0.452 0.384c0.203 0.173 0.394 0.336 0.427 0.365l-0.417 0.486M4.476 16.297l20.284-4.852c4.481 0.485 4.995 0.547 6.226 0.757-0.295 0.328-0.567 0.645-0.746 0.872-0.181 0.225-0.746 0.824-0.953 1.011-0.115 0.099-0.249 0.22-0.309 0.278-0.126 0.121-0.254 0.238-0.413 0.373l-0.007 0.006v0c-0.043 0.037-0.083 0.072-0.116 0.101-0.012 0.010-0.023 0.020-0.033 0.029-0.003 0.003-0.007 0.006-0.010 0.009-0.006 0.005-0.013 0.011-0.019 0.017-0.003 0.003-0.008 0.007-0.013 0.012-0.001 0.001-0.002 0.002-0.004 0.004-0 0-0.001 0.001-0.001 0.001l-0.036 0.031c-0.031 0.027-0.074 0.064-0.119 0.104-0.031 0.027-0.061 0.052-0.089 0.077-0.011 0.009-0.021 0.018-0.031 0.027-0.018 0.015-0.036 0.031-0.051 0.045-0.008 0.007-0.017 0.015-0.025 0.023-0.001 0.001-0.003 0.003-0.005 0.005-0.001 0.001-0.002 0.002-0.003 0.002l-0.034 0.028c-0.025 0.021-0.056 0.047-0.088 0.073-0.079 0.064-0.16 0.138-0.187 0.164l-0.014 0.013-0.006 0.007c-0.001 0.001-0.002 0.002-0.003 0.003-0.008 0.007-0.020 0.018-0.035 0.031-0.030 0.027-0.069 0.061-0.111 0.097-0.079 0.068-0.16 0.138-0.201 0.172-0.044 0.035-0.093 0.079-0.131 0.117l-0.010 0.009c-0.011 0.010-0.025 0.022-0.041 0.036-0.032 0.028-0.070 0.060-0.106 0.090-0.080 0.065-0.186 0.157-0.233 0.207l-0 0c-0.004 0.004-0.011 0.009-0.019 0.017-0.026 0.022-0.061 0.052-0.1 0.084-0.044 0.036-0.088 0.073-0.123 0.104-0.018 0.015-0.036 0.032-0.053 0.048-0.008 0.008-0.019 0.018-0.031 0.030l-0.001 0.001c-0.002 0.002-0.007 0.007-0.014 0.015-0.006 0.005-0.014 0.012-0.023 0.019s-0.020 0.016-0.030 0.024l-0.005 0.004-0.005 0.004c-0.11 0.090-0.936 0.826-1.194 1.062-0.179 0.163-0.4 0.395-0.578 0.597-0.090 0.102-0.176 0.203-0.244 0.291-0.034 0.043-0.068 0.089-0.097 0.132l-0 0c-0.011 0.017-0.034 0.050-0.058 0.094-0.026 0.030-0.045 0.058-0.059 0.078-0.028 0.042-0.053 0.085-0.072 0.12-0.040 0.074-0.081 0.161-0.119 0.248-0.075 0.17-0.158 0.385-0.207 0.559l-0 0.001c-0.037 0.133-0.070 0.256-0.083 0.416-0.012 0.139-0.008 0.295-0.002 0.491l0 0.004c0.023 0.643 0.056 0.827 0.629 3.976l0 0.002 0 0.001c0.125 0.68 0.264 1.439 0.397 2.169 0.044 0.244 0.088 0.485 0.131 0.719l0 0.001c0.265 1.442 0.426 2.524 0.483 3.162-0.141-0.044-0.288-0.086-0.39-0.109-0.476-0.108-0.832-0.218-1.142-0.344l-0.002-0.001c0.003 0.001-0.002-0.001-0.017-0.008-0.014-0.006-0.032-0.015-0.055-0.026-0.046-0.022-0.105-0.051-0.173-0.085-0.137-0.068-0.308-0.156-0.483-0.245-0.351-0.181-0.689-0.36-0.8-0.424-0.092-0.056-0.344-0.196-0.568-0.316-0.239-0.13-0.52-0.284-0.629-0.345l-0.004-0.002c-0.203-0.113-0.537-0.296-1.575-0.858l-0.001-0c-1.407-0.761-1.832-0.961-2.508-1.134l-0.009-0.002v0c-0.202-0.049-0.494-0.066-0.73-0.069-0.229-0.003-0.529 0.007-0.734 0.058l-0.003 0.001c-0.742 0.188-1.348 0.493-2.85 1.372l-0.004 0.002v0c-0.080 0.047-0.193 0.114-0.305 0.179-0.066 0.039-0.132 0.077-0.189 0.111-0.594 0.345-1.836 1.075-2.029 1.19l-0.004 0.003c-0.062 0.038-0.149 0.088-0.241 0.141-0.069 0.040-0.142 0.082-0.211 0.123-0.073 0.042-0.144 0.083-0.2 0.117l-0.001 0c-0.037 0.022-0.101 0.061-0.144 0.092M4.476 16.297c-0-0-0.001-0.001-0.001-0.001l-0.411 0.49M4.476 16.297c0 0 0.001 0.001 0.001 0.001l-0.414 0.488M5.583 18.078l0.417-0.486c0.006 0.005 0.019 0.016 0.037 0.032 0.065 0.055 0.198 0.169 0.327 0.28M5.583 18.078c0.008 0.007 0.023 0.020 0.045 0.038 0.068 0.058 0.195 0.166 0.322 0.275M5.583 18.078c-0.032-0.028-0.223-0.191-0.425-0.363l-0.452-0.385M6.364 17.904c0.087 0.072 0.167 0.14 0.226 0.192 0.030 0.026 0.056 0.049 0.076 0.066l0.001 0.001c0.005 0.005 0.026 0.023 0.046 0.042M6.364 17.904c-0.002-0.001-0.003-0.003-0.005-0.004l-0.409 0.492M6.364 17.904c0.002 0.001 0.003 0.003 0.005 0.004l-0.419 0.484M6.714 18.205l0.008 0.007c0.009 0.009 0.024 0.021 0.042 0.037 0.036 0.032 0.084 0.074 0.137 0.12l0.002 0.002c0.171 0.151 0.409 0.393 0.613 0.614 0.193 0.209 0.412 0.458 0.512 0.612l0.002 0.003c0.393 0.611 0.566 1.186 0.562 1.901M6.714 18.205c0 0 0.001 0.001 0.001 0.001M6.714 18.205l-0.001-0.001c-0-0 0 0 0.002 0.001M8.591 21.5c-0 0.544-0.081 1.068-0.329 2.336l-0 0.002c-0.105 0.531-0.202 1.028-0.216 1.103-0.015 0.079-0.106 0.551-0.206 1.051M8.591 21.5c0-0 0-0.001 0-0.002h-0.64M8.591 21.5c0 0.001 0 0.001 0 0.002l-0.64-0.003M7.839 25.992c-0.403 2.041-0.623 3.199-0.697 3.662v0l-0 0.003c-0.063 0.385-0.128 0.898-0.172 1.335-0.007 0.071-0.014 0.139-0.020 0.204M7.839 25.992c0-0 0-0 0-0.001l-0.628-0.124M7.839 25.992c-0 0-0 0.001-0 0.001l-0.628-0.126M6.95 31.195c0.193-0.071 0.42-0.15 0.572-0.201l0.004-0.001 0.004-0.001c0.183-0.058 0.445-0.151 0.569-0.201M6.95 31.195c-0.062 0.023-0.12 0.044-0.171 0.064l-0.004 0.001c-0.124 0.048-0.207 0.076-0.263 0.091-0.029 0.008-0.042 0.010-0.042 0.010s0.017-0.002 0.044-0c0.032 0.002 0.083 0.010 0.142 0.037 0.062 0.027 0.117 0.067 0.16 0.115 0.055 0.060 0.078 0.116 0.085 0.138 0.001 0.002 0.001 0.003 0.001 0.004s0 0.001 0 0.002c0.008 0.034 0.011 0.062 0.012 0.074M6.95 31.195c-0.012 0.134-0.022 0.253-0.028 0.35-0.002 0.030-0.003 0.057-0.004 0.081-0 0.001-0 0.002-0 0.004-0.001 0.032-0.002 0.057-0.002 0.077-0 0.011 0 0.019 0 0.024M8.1 30.79c0.094-0.038 0.388-0.182 0.693-0.337 0.146-0.075 0.286-0.147 0.391-0.204 0.053-0.029 0.095-0.052 0.123-0.068 0.007-0.004 0.013-0.008 0.017-0.010M8.1 30.79l0-0c-0 0-0 0-0 0zM9.324 30.171c0.003-0.002 0.005-0.003 0.007-0.004M9.324 30.171c-0.004 0.003-0.007 0.005-0.011 0.008l-0.015 0.011-0.015 0.012c0.011-0.010 0.022-0.018 0.030-0.024s0.014-0.010 0.018-0.012M9.331 30.167c0.002-0.001 0.003-0.002 0.003-0.002s-0.001 0.001-0.003 0.002zM6.916 31.73c0 0.005 0 0.007 0 0.007s-0-0.002-0-0.007zM7.212 25.867c0.1-0.498 0.191-0.969 0.205-1.046s0.112-0.575 0.217-1.108M7.212 25.867c-0.402 2.036-0.625 3.209-0.701 3.685-0.132 0.803-0.264 2.11-0.229 2.252 0.059 0.246 0.199 0.255 0.725 0.052 0.202-0.077 0.525-0.191 0.719-0.255 0.194-0.061 0.472-0.16 0.616-0.218 0.249-0.102 1.279-0.628 1.355-0.692 0.021-0.015 0.153-0.095 0.293-0.175 0.058-0.034 0.129-0.075 0.199-0.116l-2.555-6.686M7.634 23.714c0.249-1.277 0.317-1.741 0.317-2.215M7.634 23.714l-0.144-3.768M2.682 15.614c0.019 0.016 0.052 0.044 0.094 0.081 0.096 0.082 0.239 0.204 0.375 0.319 0.197 0.166 0.607 0.514 0.912 0.772M2.682 15.614l2.024 1.717M4.706 17.33c-0.006-0.005-0.015-0.013-0.027-0.023-0.090-0.076-0.345-0.294-0.615-0.521M4.706 17.33l1.244 1.061M7.951 21.499c0.003-0.588-0.132-1.043-0.461-1.554M7.49 19.945c-0.132-0.203-0.719-0.837-1.012-1.095-0.106-0.092-0.197-0.172-0.205-0.181M7.49 19.945l-1.218-1.277M6.715 18.206c0.007 0.007 0.015 0.014 0.021 0.021v0c-0.011-0.011-0.019-0.019-0.020-0.020h-0c-0-0-0.001-0.001-0.001-0.001zM5.95 18.392c0.17 0.142 0.314 0.268 0.323 0.277M5.95 18.392l0.323 0.277M31.629 12.334c0 0-0.001-0.001-0.005-0.002 0.003 0.001 0.005 0.002 0.005 0.002zM25.768 30.887c-0-0-0.002-0-0.006-0.001 0.004 0.001 0.007 0.001 0.006 0.001zM6.904 31.656c0.001 0.005 0.001 0.004-0-0.002l0 0.002z"></path>
</symbol>
<symbol id="icon-star-light-checked" viewBox="0 0 32 32">
<path fill="#5a5a5a" style="fill: var(--color2, #5a5a5a)" d="M15.661 0.078c-0.047 0.049-0.17 0.246-0.276 0.44-0.103 0.194-0.302 0.56-0.44 0.815-0.276 0.498-0.769 1.507-1.015 2.077-0.238 0.548-1.655 3.775-1.883 4.291-0.334 0.748-0.663 1.415-0.819 1.661-0.22 0.345-0.531 0.661-0.777 0.794-0.355 0.191-1.135 0.385-2.755 0.683-0.241 0.046-0.651 0.12-0.909 0.169s-0.772 0.145-1.144 0.212c-3.256 0.603-3.77 0.708-4.762 0.96-0.707 0.178-0.845 0.234-0.874 0.354s0.035 0.222 0.408 0.646c0.29 0.326 0.537 0.634 0.769 0.954 0.211 0.292 0.907 0.981 1.499 1.48 0.062 0.052 0.273 0.234 0.469 0.4s0.607 0.514 0.912 0.772c0.308 0.258 0.596 0.505 0.643 0.544s0.249 0.212 0.452 0.385 0.393 0.335 0.425 0.363c0.032 0.028 0.2 0.169 0.367 0.314 0.17 0.142 0.314 0.268 0.323 0.277s0.1 0.089 0.205 0.181c0.293 0.258 0.88 0.892 1.012 1.095 0.329 0.511 0.464 0.966 0.461 1.554 0 0.474-0.067 0.938-0.317 2.215-0.106 0.532-0.202 1.031-0.217 1.108s-0.106 0.548-0.205 1.046c-0.402 2.036-0.625 3.209-0.701 3.685-0.132 0.803-0.264 2.11-0.229 2.252 0.059 0.246 0.2 0.255 0.725 0.052 0.202-0.077 0.525-0.191 0.719-0.255 0.194-0.061 0.472-0.16 0.616-0.218 0.249-0.102 1.279-0.628 1.355-0.692 0.021-0.015 0.153-0.095 0.293-0.175 0.141-0.083 0.352-0.203 0.464-0.271 0.191-0.114 1.432-0.843 2.024-1.187 0.147-0.086 0.37-0.215 0.499-0.292 1.508-0.883 2.042-1.141 2.684-1.304 0.235-0.058 0.904-0.049 1.159 0.012 0.59 0.151 0.951 0.314 2.362 1.077 1.039 0.563 1.37 0.744 1.57 0.855 0.114 0.065 0.402 0.221 0.64 0.351 0.241 0.129 0.484 0.265 0.543 0.302 0.246 0.145 1.443 0.763 1.619 0.834 0.349 0.142 0.739 0.262 1.241 0.375 0.123 0.028 0.361 0.099 0.525 0.157 0.525 0.185 0.669 0.132 0.669-0.252 0-0.566-0.182-1.877-0.516-3.698-0.17-0.932-0.361-1.981-0.528-2.889-0.578-3.178-0.598-3.301-0.619-3.885-0.012-0.415-0.009-0.465 0.062-0.717 0.076-0.271 0.282-0.738 0.34-0.775 0.018-0.012 0.041-0.046 0.053-0.077 0.041-0.114 0.546-0.686 0.857-0.969 0.258-0.237 1.074-0.963 1.168-1.040 0.059-0.046 0.114-0.095 0.123-0.108s0.082-0.077 0.161-0.142c0.082-0.068 0.161-0.135 0.176-0.154 0.018-0.018 0.097-0.089 0.176-0.154 0.082-0.068 0.17-0.145 0.197-0.169 0.026-0.028 0.068-0.065 0.088-0.080 0.085-0.071 0.364-0.311 0.405-0.354 0.026-0.025 0.097-0.089 0.158-0.138 0.062-0.052 0.129-0.108 0.147-0.123 0.018-0.018 0.106-0.092 0.194-0.169s0.167-0.145 0.176-0.154c0.009-0.009 0.088-0.077 0.176-0.154 0.17-0.145 0.308-0.271 0.443-0.4 0.044-0.043 0.173-0.16 0.288-0.258 0.229-0.206 0.827-0.84 1.030-1.092 0.229-0.289 0.631-0.751 1.036-1.187 0.2-0.218 0.238-0.289 0.22-0.418-0.015-0.12-0.17-0.169-0.845-0.286-1.297-0.222-1.778-0.28-6.322-0.772-2.086-0.225-2.828-0.332-3.227-0.468-0.516-0.172-0.792-0.477-1.264-1.394-0.182-0.357-1.256-2.621-1.763-3.722-0.569-1.237-1.435-3.042-1.643-3.43-0.505-0.938-0.877-1.597-0.965-1.695-0.111-0.126-0.188-0.132-0.305-0.022z"></path>
</symbol>
<symbol id="icon-star-light-empty" viewBox="0 0 32 32">
<path fill="none" stroke="#5a5a5a" style="stroke: var(--color2, #5a5a5a)" stroke-linejoin="miter" stroke-linecap="butt" stroke-miterlimit="4" stroke-width="1.28" d="M12.046 7.702c0.229-0.517 1.646-3.744 1.883-4.291 0.246-0.569 0.739-1.578 1.015-2.077l-2.899 6.368zM12.046 7.702c-0.334 0.748-0.663 1.415-0.819 1.661l0.819-1.661zM0.414 13.18c0.29 0.326 0.537 0.634 0.769 0.954M0.414 13.18c-0.373-0.425-0.437-0.526-0.408-0.646s0.167-0.175 0.874-0.354c0.992-0.252 1.505-0.357 4.762-0.96 0.373-0.068 0.886-0.163 1.144-0.212 0.126-0.024 0.289-0.054 0.45-0.084 0.169-0.031 0.337-0.062 0.46-0.086l-6.513 3.295M0.414 13.18l0.345-0.308M0.414 13.18l0.479-0.424M1.183 14.134c0.211 0.292 0.907 0.981 1.499 1.48 0.019 0.016 0.052 0.044 0.094 0.081 0.096 0.082 0.239 0.204 0.375 0.319 0.197 0.166 0.607 0.514 0.912 0.772l-2.881-2.652zM0.893 12.757c0.001 0.001 0.001 0.001 0.002 0.002l-0.128 0.113c-0.002 0.001-0.005 0.001-0.007 0.002M0.893 12.757c-0.091-0.104-0.158-0.182-0.209-0.244-0.052-0.064-0.075-0.097-0.085-0.111-0-0.001-0.001-0.001-0.001-0.002M0.893 12.757l-0.476 0.221M0.759 12.873c-0.050 0.013-0.094 0.025-0.134 0.037-0.106 0.030-0.164 0.050-0.196 0.063-0.006 0.002-0.010 0.004-0.012 0.005M0.759 12.873l-0.342 0.105M0.417 12.978c-0.002 0.001-0.003 0.002-0.003 0.002s0.001-0.001 0.003-0.002zM0.417 12.978c0.008-0.004 0.033-0.019 0.063-0.045s0.064-0.064 0.093-0.113c0.029-0.049 0.046-0.096 0.055-0.133 0.005-0.022 0.011-0.054 0.012-0.094s-0.004-0.078-0.012-0.113c-0.010-0.045-0.025-0.073-0.029-0.081M0.599 12.399c-0.001-0.001-0.001-0.002-0.001-0.002s0 0.001 0.001 0.002zM6.901 18.37l-0.002-0.002c-0.053-0.046-0.101-0.088-0.137-0.12-0.018-0.016-0.032-0.028-0.042-0.037l-0.007-0.007c-0.020-0.019-0.041-0.037-0.046-0.042l-0.001-0.001c-0.019-0.017-0.045-0.040-0.076-0.066-0.060-0.052-0.14-0.12-0.226-0.192-0.129-0.111-0.262-0.225-0.327-0.28-0.019-0.016-0.032-0.027-0.037-0.032 0 0 0 0 0 0l-0.417 0.486c-0.032-0.028-0.223-0.191-0.425-0.363l0.415-0.487-0.452-0.384-0.415 0.487 2.195 1.040zM6.901 18.37c0.171 0.151 0.409 0.393 0.613 0.614 0.193 0.209 0.412 0.458 0.512 0.612l0.002 0.003M6.901 18.37l1.127 1.229M6.715 18.206c0 0 0.001 0.001 0.001 0.001h0c0.001 0.001 0.009 0.008 0.019 0.019M6.715 18.206l0.020 0.020M6.715 18.206c0.007 0.007 0.014 0.014 0.020 0.020M6.715 18.206l0.020 0.020M8.028 19.599c0.393 0.611 0.566 1.186 0.562 1.901-0 0.544-0.081 1.068-0.329 2.336l-0 0.002M8.028 19.599l0.233 4.239M8.262 23.838c-0.105 0.531-0.202 1.028-0.216 1.103-0.015 0.079-0.106 0.551-0.206 1.051-0.403 2.041-0.623 3.199-0.697 3.662v0M8.262 23.838l-1.119 5.815M7.142 29.654l-0 0.003M7.142 29.654l-0 0.003M7.142 29.657c-0.063 0.385-0.128 0.898-0.172 1.335-0.007 0.071-0.014 0.139-0.020 0.204M7.142 29.657l-0.192 1.538M6.95 31.195c0.193-0.071 0.42-0.15 0.572-0.201l0.004-0.001 0.004-0.001c0.183-0.058 0.445-0.151 0.569-0.201l-1.149 0.405zM9.324 30.171c-0.004 0.003-0.010 0.006-0.017 0.010-0.028 0.016-0.070 0.039-0.123 0.068-0.106 0.057-0.245 0.13-0.391 0.204-0.304 0.155-0.598 0.299-0.693 0.337l1.224-0.62zM9.324 30.171c0.043-0.031 0.108-0.070 0.144-0.092l0.001-0c0.056-0.034 0.127-0.075 0.2-0.117 0.069-0.041 0.142-0.083 0.211-0.123 0.092-0.053 0.178-0.103 0.241-0.141v0l0.004-0.003c0.194-0.116 1.436-0.845 2.029-1.19 0.057-0.034 0.123-0.072 0.189-0.111 0.111-0.065 0.225-0.131 0.305-0.179v-0l0.004-0.002c1.503-0.88 2.109-1.184 2.85-1.372l0.003-0.001c0.205-0.051 0.505-0.060 0.734-0.058 0.236 0.003 0.528 0.020 0.73 0.069v-0l0.009 0.002c0.676 0.173 1.1 0.373 2.508 1.134l0.001 0c1.038 0.563 1.372 0.746 1.575 0.858l0.004 0.002c0.109 0.061 0.39 0.215 0.629 0.345 0.224 0.12 0.476 0.259 0.568 0.316 0.111 0.065 0.449 0.244 0.8 0.424 0.174 0.090 0.345 0.177 0.483 0.245 0.069 0.034 0.128 0.063 0.173 0.085 0.023 0.011 0.041 0.020 0.055 0.026 0.015 0.007 0.020 0.009 0.017 0.008l0.002 0.001c0.31 0.126 0.666 0.236 1.141 0.344 0.102 0.023 0.249 0.065 0.39 0.109-0.057-0.638-0.218-1.72-0.483-3.162l-0-0.001c-0.043-0.234-0.087-0.476-0.131-0.72-0.133-0.73-0.271-1.488-0.396-2.168l-0-0.001-0-0.002c-0.573-3.149-0.606-3.332-0.629-3.976l-0-0.004c-0.006-0.196-0.010-0.352 0.002-0.491 0.013-0.159 0.046-0.283 0.083-0.416l0-0.001c0.049-0.174 0.132-0.389 0.207-0.559 0.038-0.087 0.079-0.174 0.119-0.248 0.019-0.036 0.044-0.079 0.072-0.12 0.014-0.020 0.034-0.048 0.059-0.078 0.024-0.044 0.047-0.078 0.058-0.094l0-0c0.030-0.044 0.064-0.089 0.097-0.132 0.068-0.087 0.154-0.189 0.244-0.291 0.178-0.201 0.398-0.434 0.577-0.597 0.258-0.236 1.084-0.973 1.194-1.063l0.005-0.004 0.005-0.004c0.010-0.008 0.020-0.016 0.030-0.024 0.005-0.004 0.010-0.008 0.014-0.012 0.003-0.003 0.006-0.005 0.009-0.008 0.007-0.008 0.012-0.013 0.014-0.015l0.001-0.001c0.012-0.012 0.023-0.022 0.031-0.030 0.017-0.016 0.035-0.032 0.053-0.048 0.035-0.031 0.079-0.068 0.124-0.104 0.038-0.032 0.074-0.061 0.1-0.084 0.008-0.007 0.015-0.013 0.019-0.017l0-0-17.477 13.894zM6.713 18.204c-0-0-0-0-0 0h0zM6.916 31.737c0-0 0-0.003-0-0.007 0 0.005 0 0.007 0 0.007zM9.331 30.167c0.002-0.001 0.003-0.002 0.003-0.002s-0.001 0.001-0.003 0.002zM25.768 30.887c-0-0-0.002-0-0.006-0.001 0.004 0.001 0.007 0.001 0.006 0.001z"></path>
</symbol>
<symbol id="moon" viewBox="0 0 32 32">
<path fill="currentColor" d="M17.701 32a15.97 15.97 0 0012.429-5.925c.442-.544-.04-1.339-.723-1.209-7.763 1.478-14.891-4.474-14.891-12.31 0-4.514 2.416-8.665 6.344-10.9.605-.345.453-1.262-.235-1.389-.879-.17-1.89-.267-2.923-.268-8.832 0-16 7.157-16 16 0 8.832 7.157 16 16 16z"/>
</symbol>
<symbol id="sun" viewBox="0 0 32 32">
<path fill="currentColor" d="M16 10c-3.306 0-6 2.694-6 6s2.694 6 6 6 6-2.694 6-6-2.694-6-6-6zm15.4 5.031l-5.919-2.956L27.575 5.8c.281-.85-.525-1.656-1.369-1.369l-6.275 2.094L16.969.6c-.4-.8-1.537-.8-1.938 0l-2.956 5.919-6.281-2.094c-.85-.281-1.656.525-1.369 1.369l2.094 6.275L.6 15.032c-.8.4-.8 1.538 0 1.938l5.919 2.956-2.094 6.281c-.281.85.525 1.656 1.369 1.369l6.275-2.094 2.956 5.919c.4.8 1.538.8 1.938 0l2.956-5.919 6.275 2.094c.85.281 1.656-.525 1.369-1.369l-2.094-6.275 5.919-2.956c.813-.406.813-1.544.012-1.944zm-9.744 6.625c-3.119 3.119-8.194 3.119-11.313 0s-3.119-8.194 0-11.313c3.119-3.119 8.194-3.119 11.313 0s3.119 8.194 0 11.313z"/>
</symbol>
</defs>
</svg>
