<svg width="50" height="50" viewBox="0 0 50 50" fill="none" xmlns="http://www.w3.org/2000/svg">
<path d="M18.8226 12.0336C19.1801 11.2261 21.3942 6.1838 21.7655 5.32819C22.1506 4.43893 22.9207 2.8623 23.3516 2.08361L18.8226 12.0336ZM18.8226 12.0336C18.3 13.2017 17.7866 14.2448 17.5436 14.6293L18.8226 12.0336ZM0.646902 20.5945C1.10072 21.104 1.48578 21.5847 1.84792 22.0846M0.646902 20.5945C0.0647302 19.9312 -0.0361185 19.7725 0.00972186 19.5851C0.0555622 19.3976 0.271012 19.3111 1.37576 19.0323C2.92517 18.6381 3.72737 18.4747 8.81565 17.5326C9.39782 17.4268 10.2 17.2778 10.6034 17.2009C10.8005 17.1634 11.0544 17.1166 11.3064 17.0702C11.5703 17.0216 11.8322 16.9734 12.0245 16.9365L1.84792 22.0846M0.646902 20.5945L1.18637 20.114M0.646902 20.5945L1.39607 19.9321M1.84792 22.0846C2.17797 22.5413 3.26439 23.618 4.19036 24.3967C4.21995 24.4218 4.27164 24.466 4.33796 24.5227C4.48738 24.6505 4.71109 24.8418 4.92381 25.0215C5.23094 25.2811 5.8727 25.8243 6.34944 26.228L1.84792 22.0846ZM1.39607 19.9321C1.39688 19.933 1.39768 19.934 1.39849 19.9349L1.19788 20.1109C1.19402 20.112 1.19018 20.113 1.18637 20.114M1.39607 19.9321C1.25374 19.7699 1.14864 19.6474 1.0702 19.5512C0.988971 19.4516 0.952542 19.3999 0.938192 19.3772C0.937466 19.376 0.936856 19.3751 0.936355 19.3742M1.39607 19.9321L0.651664 20.278M1.18637 20.114C1.10872 20.1347 1.03921 20.1538 0.976828 20.1716C0.811746 20.2187 0.719881 20.2501 0.670426 20.2701C0.661656 20.2736 0.655505 20.2763 0.651664 20.278M1.18637 20.114L0.651664 20.278M0.651664 20.278C0.648497 20.2797 0.646759 20.2805 0.646677 20.2805C0.646595 20.2805 0.64818 20.2796 0.651664 20.278ZM0.651664 20.278C0.66491 20.2711 0.703149 20.249 0.749621 20.2079C0.79672 20.1663 0.849355 20.1079 0.895117 20.0312C0.940943 19.9543 0.966836 19.881 0.981102 19.8226C0.989528 19.7882 0.998553 19.7377 0.999843 19.676C1.00116 19.6131 0.994148 19.5535 0.981642 19.5002C0.965304 19.4306 0.942838 19.386 0.936355 19.3742M0.936355 19.3742C0.935063 19.3721 0.934497 19.3711 0.934539 19.3711C0.93458 19.3711 0.935225 19.3722 0.936355 19.3742ZM10.7831 28.703L10.7801 28.7004C10.698 28.6286 10.6227 28.5626 10.5666 28.5131C10.5384 28.4882 10.5165 28.4688 10.5017 28.4555L10.4901 28.445C10.4582 28.4146 10.4261 28.3865 10.4176 28.3791L10.4157 28.3775C10.3853 28.3506 10.3449 28.3153 10.2974 28.2743C10.204 28.1936 10.0794 28.0874 9.94384 27.9745C9.7427 27.8007 9.53445 27.6235 9.43314 27.5374C9.40417 27.5127 9.38394 27.4955 9.37512 27.4879C9.37511 27.4879 9.37511 27.4879 9.3751 27.4879L8.72397 28.2469C8.67354 28.2036 8.37558 27.9489 8.05928 27.6797L8.70739 26.9181L8.00187 26.3177L7.35334 27.0788L10.7831 28.703ZM10.7831 28.703C11.0508 28.9388 11.4219 29.3168 11.7416 29.6625C12.0437 29.9892 12.3846 30.3775 12.542 30.6195L12.5445 30.6235M10.7831 28.703L12.5445 30.6235M10.4914 28.4462C10.492 28.4469 10.4928 28.4476 10.4936 28.4484L10.4937 28.4484C10.4946 28.4493 10.5073 28.4613 10.5233 28.478M10.4914 28.4462L10.5233 28.478M10.4914 28.4462C10.5024 28.4568 10.5134 28.4677 10.5233 28.478M10.4914 28.4462L10.5233 28.478M12.5445 30.6235C13.1586 31.5778 13.4285 32.4773 13.4233 33.5945C13.423 34.4452 13.2966 35.2634 12.9097 37.2446L12.9091 37.2476M12.5445 30.6235L12.9091 37.2476M12.9091 37.2476C12.7443 38.078 12.5935 38.854 12.5713 38.9707C12.5478 39.0937 12.4053 39.8312 12.249 40.6123C11.6196 43.8012 11.2756 45.6113 11.16 46.3341L11.16 46.3341M12.9091 37.2476L11.16 46.3341M11.16 46.3341L11.1593 46.3384M11.16 46.3341L11.1593 46.3384M11.1593 46.3384C11.0604 46.9395 10.9598 47.7423 10.8907 48.4239C10.8794 48.5346 10.8691 48.6411 10.8599 48.7422M11.1593 46.3384L10.8599 48.7422M10.8599 48.7422C11.162 48.632 11.5166 48.508 11.7538 48.4289L11.7606 48.4266L11.7675 48.4244C12.054 48.3334 12.4628 48.1885 12.6559 48.11L10.8599 48.7422ZM14.5682 47.1419C14.5617 47.1459 14.5528 47.1511 14.5413 47.1577C14.4972 47.1832 14.4326 47.2191 14.3495 47.2639C14.1846 47.3529 13.9673 47.4664 13.7384 47.5832C13.2631 47.826 12.8041 48.0496 12.6563 48.1099L14.5682 47.1419ZM14.5682 47.1419C14.6361 47.0934 14.7368 47.033 14.7939 46.9987L14.7949 46.9981C14.8828 46.9453 14.9936 46.8804 15.1082 46.8152C15.2156 46.7519 15.3295 46.6861 15.4381 46.6233C15.5822 46.54 15.7169 46.4622 15.8145 46.4029L15.8145 46.4029L15.8209 46.399C16.1236 46.2184 18.064 45.0784 18.9919 44.5389C19.0813 44.4864 19.1839 44.4265 19.2877 44.366C19.4619 44.2643 19.6395 44.1607 19.7639 44.0866L19.7639 44.0865L19.7705 44.0827C22.1183 42.708 23.0654 42.2323 24.2241 41.9383L24.2285 41.9372C24.5489 41.8574 25.017 41.8427 25.3752 41.8469C25.7436 41.8513 26.1997 41.8786 26.5152 41.9546L26.5152 41.9545L26.5285 41.9579C27.5843 42.2279 28.248 42.5408 30.4466 43.7295L30.4475 43.73C32.0695 44.6093 32.592 44.8953 32.9088 45.0711L32.9151 45.0747C33.0849 45.1705 33.5242 45.4104 33.8982 45.6137C34.2477 45.8014 34.6414 46.0189 34.7856 46.1071C34.9594 46.2081 35.4878 46.4879 36.0355 46.7702C36.308 46.9107 36.5753 47.0467 36.79 47.1537C36.8975 47.2073 36.9894 47.2524 37.061 47.2867C37.0969 47.3038 37.1255 47.3173 37.1472 47.3272C37.1713 47.3382 37.1783 47.341 37.1741 47.3393L37.1768 47.3404C37.6611 47.5367 38.2169 47.7093 38.9603 47.8781C39.119 47.9138 39.3499 47.979 39.5698 48.048C39.4811 47.051 39.2294 45.3606 38.8156 43.1074L38.8154 43.1064C38.7486 42.7405 38.6798 42.3633 38.6101 41.9812C38.4022 40.8407 38.1861 39.6557 37.9906 38.5944L37.9901 38.5922L37.9897 38.5897C37.0948 33.6691 37.0427 33.3828 37.0074 32.3774L37.0072 32.3705C36.9985 32.0635 36.992 31.8202 37.0103 31.6028C37.0313 31.3541 37.082 31.1606 37.1399 30.9534L37.1405 30.9511C37.2173 30.6785 37.3468 30.3437 37.4636 30.0776C37.523 29.9423 37.5874 29.806 37.6494 29.6908C37.6796 29.6347 37.7179 29.5676 37.7618 29.5025C37.7832 29.4709 37.8143 29.4272 37.8542 29.3805C37.8916 29.3115 37.9272 29.2589 37.9448 29.2329L37.9452 29.2323C37.9915 29.1639 38.0447 29.0928 38.0975 29.0253C38.2044 28.8887 38.338 28.7304 38.4789 28.5709C38.757 28.2561 39.1013 27.8935 39.3809 27.6388C39.7835 27.2694 41.0752 26.1188 41.2466 25.9784L41.2543 25.9721L41.2621 25.9659C41.2778 25.9536 41.2936 25.9408 41.3086 25.9284C41.3166 25.9217 41.3241 25.9154 41.3308 25.9097C41.3358 25.9055 41.3403 25.9015 41.3444 25.898C41.3555 25.8859 41.3635 25.8778 41.3666 25.8747L41.3676 25.8737C41.3857 25.8552 41.4028 25.8388 41.4154 25.8269C41.4415 25.8024 41.4703 25.7765 41.4978 25.7524C41.5531 25.7038 41.6213 25.6462 41.6908 25.5894C41.7509 25.5399 41.806 25.4935 41.8466 25.4584C41.8596 25.447 41.8693 25.4385 41.8761 25.4324L41.8763 25.4322L14.5682 47.1419ZM10.4891 28.4441C10.4888 28.4439 10.4888 28.4439 10.489 28.4441L10.4891 28.4441ZM10.8067 49.5898C10.8068 49.5896 10.8067 49.5856 10.8062 49.5785C10.8064 49.5865 10.8066 49.59 10.8067 49.5898ZM14.5791 47.1353C14.582 47.1335 14.5833 47.1327 14.5832 47.1327C14.5831 47.1327 14.5817 47.1336 14.5791 47.1353ZM40.2619 48.2606C40.2618 48.2605 40.2583 48.26 40.2518 48.2597C40.2588 48.2606 40.262 48.2608 40.2619 48.2606Z" stroke="#5A5A5A" stroke-width="2"/>
</svg>
