<svg width="50" height="50" viewBox="0 0 50 50" fill="none" xmlns="http://www.w3.org/2000/svg">
<path d="M24.4701 0.122444C24.3968 0.199352 24.2043 0.506989 24.0392 0.809814C23.8788 1.11264 23.5671 1.68465 23.3516 2.08361C22.9207 2.86231 22.1506 4.43893 21.7655 5.32819C21.3942 6.18379 19.1801 11.2261 18.8226 12.0336C18.3 13.2017 17.7866 14.2448 17.5436 14.6293C17.1998 15.1677 16.7139 15.6628 16.3289 15.8694C15.7742 16.1675 14.5549 16.4703 12.0245 16.9366C11.6486 17.0087 11.0068 17.124 10.6034 17.2009C10.2 17.2778 9.39782 17.4268 8.81565 17.5326C3.72737 18.4747 2.92517 18.6381 1.37576 19.0323C0.271012 19.3111 0.0555622 19.3976 0.00972186 19.5851C-0.0361185 19.7725 0.0647302 19.9312 0.646903 20.5945C1.10072 21.104 1.48578 21.5847 1.84792 22.0846C2.17797 22.5413 3.26439 23.618 4.19036 24.3967C4.28662 24.4784 4.61668 24.762 4.92381 25.0215C5.23094 25.2811 5.8727 25.8243 6.34944 26.228C6.83076 26.6318 7.28 27.0164 7.35334 27.0788C7.42669 27.1413 7.74299 27.4105 8.05929 27.6797C8.37558 27.9489 8.67355 28.2036 8.72397 28.2469C8.77439 28.2902 9.03568 28.5113 9.29697 28.7372C9.56285 28.9583 9.78747 29.1554 9.80122 29.1698C9.81497 29.1842 9.95708 29.3092 10.1221 29.4534C10.5805 29.8572 11.4973 30.8474 11.7036 31.1646C12.217 31.9625 12.4279 32.6739 12.4233 33.592C12.4233 34.3323 12.3179 35.0581 11.9282 37.0529C11.7632 37.8845 11.6119 38.6632 11.589 38.7834C11.5661 38.9035 11.424 39.639 11.2681 40.4177C10.6401 43.5997 10.2917 45.4311 10.1725 46.1762C9.96624 47.4307 9.75996 49.4736 9.81497 49.6947C9.90665 50.0793 10.1267 50.0937 10.9472 49.7765C11.2635 49.6563 11.7678 49.4784 12.0703 49.3775C12.3729 49.2814 12.8083 49.1275 13.033 49.0362C13.4226 48.8776 15.0316 48.0556 15.1508 47.9547C15.1829 47.9306 15.3892 47.8057 15.6092 47.6807C15.8292 47.5509 16.1593 47.3634 16.3335 47.2577C16.6314 47.0798 18.5705 45.9406 19.4964 45.4023C19.7256 45.2677 20.074 45.0658 20.2757 44.9456C22.6319 43.5661 23.4662 43.1623 24.4701 42.9076C24.8368 42.8162 25.882 42.8307 26.2808 42.9268C27.2022 43.1623 27.766 43.4171 29.971 44.6092C31.5937 45.4888 32.1117 45.7724 32.4234 45.9454C32.6022 46.0464 33.0514 46.2915 33.4227 46.4934C33.7986 46.6953 34.1791 46.9068 34.2708 46.9645C34.6558 47.1904 36.5261 48.1566 36.8012 48.2671C37.3467 48.4882 37.9564 48.6757 38.7402 48.8535C38.9328 48.8968 39.3041 49.0074 39.5608 49.0987C40.3813 49.3871 40.6059 49.3054 40.6059 48.7045C40.6059 47.8201 40.3217 45.7724 39.7991 42.9268C39.5333 41.4703 39.2353 39.8312 38.974 38.4132C38.071 33.4478 38.0389 33.2556 38.0068 32.3423C37.9884 31.6934 37.993 31.6164 38.103 31.2223C38.2222 30.7993 38.5431 30.0687 38.6348 30.011C38.6623 29.9918 38.699 29.9389 38.7173 29.8908C38.7815 29.713 39.5699 28.8189 40.0558 28.3767C40.4592 28.0066 41.7336 26.8722 41.8803 26.752C41.972 26.6799 42.0591 26.603 42.0728 26.5837C42.0866 26.5645 42.2012 26.4636 42.3249 26.3626C42.4533 26.2569 42.5771 26.1511 42.6 26.1223C42.6275 26.0935 42.7513 25.9829 42.875 25.882C43.0034 25.7762 43.1409 25.656 43.1822 25.6176C43.2234 25.5743 43.2876 25.5166 43.3197 25.4926C43.4526 25.3821 43.8881 25.0071 43.9523 24.9398C43.9935 24.9014 44.1035 24.8004 44.1998 24.7235C44.2961 24.6418 44.4015 24.5553 44.429 24.5313C44.4565 24.5024 44.594 24.3871 44.7316 24.2669C44.8691 24.1467 44.9928 24.041 45.0066 24.0265C45.0203 24.0121 45.1441 23.9064 45.2816 23.7862C45.5475 23.5603 45.763 23.3632 45.9738 23.1613C46.0426 23.094 46.2443 22.9114 46.4231 22.7576C46.7806 22.4355 47.7158 21.4453 48.0321 21.0512C48.3896 20.5993 49.0176 19.8783 49.6502 19.1957C49.9619 18.8545 50.0215 18.7439 49.994 18.542C49.9711 18.3545 49.7281 18.2776 48.6738 18.095C46.6477 17.7489 45.8959 17.6576 38.7952 16.8885C35.536 16.5376 34.3762 16.3694 33.7528 16.1579C32.946 15.8887 32.5151 15.4128 31.7771 13.9804C31.4929 13.4228 29.8151 9.88501 29.0221 8.16418C28.1328 6.23186 26.7805 3.41028 26.455 2.80463C25.6666 1.33856 25.0844 0.30991 24.9469 0.156094C24.7727 -0.0409851 24.6535 -0.0505981 24.4701 0.122444Z" fill="#BEBDBD"/>
</svg>
