<svg width="50" height="50" viewBox="0 0 50 50" fill="none" xmlns="http://www.w3.org/2000/svg">
<path d="M24.2316 2.5588L24.2315 2.55878C24.2974 2.43679 24.3735 2.29636 24.452 2.15152C24.5362 1.99611 24.6232 1.83562 24.7033 1.68739C24.9421 2.11254 25.2384 2.65367 25.5741 3.27799C25.8825 3.85189 27.2222 6.64524 28.1137 8.58226L28.1139 8.58273C28.9062 10.302 30.5917 13.8569 30.8861 14.4345L30.8881 14.4384C31.2633 15.1666 31.6045 15.7429 31.9984 16.1772C32.4258 16.6483 32.8863 16.9226 33.434 17.1057C33.4348 17.1059 33.4355 17.1062 33.4363 17.1064L33.7528 16.1579C34.3762 16.3694 35.536 16.5376 38.7952 16.8885L24.2316 2.5588ZM24.2316 2.5588L24.2266 2.56778M24.2316 2.5588L24.2266 2.56778M24.2266 2.56778C23.8129 3.31546 23.0568 4.86282 22.6832 5.72554L22.6829 5.72628M24.2266 2.56778L22.6829 5.72628M22.6829 5.72628C22.3103 6.58474 20.0952 11.6294 19.737 12.4385L19.7354 12.442M22.6829 5.72628L19.7354 12.442M19.7354 12.442C19.2167 13.6015 18.6761 14.7091 18.3891 15.1634L18.3865 15.1675M19.7354 12.442L18.3865 15.1675M18.3865 15.1675C17.9895 15.789 17.3905 16.4344 16.8022 16.7503C16.4075 16.9624 15.8603 17.1364 15.1583 17.3105C14.4384 17.489 13.4782 17.6855 12.2094 17.9193M18.3865 15.1675L1.19788 20.1109M0.646903 20.5945C1.10072 21.104 1.48578 21.5847 1.84792 22.0846M0.646903 20.5945C0.0647302 19.9312 -0.0361185 19.7725 0.00972186 19.5851C0.0555622 19.3976 0.271012 19.3111 1.37576 19.0323C2.92517 18.6381 3.72737 18.4747 8.81565 17.5326C9.39782 17.4268 10.2 17.2778 10.6034 17.2009L1.84792 22.0846M0.646903 20.5945L1.19788 20.1109M0.646903 20.5945L1.18637 20.114C1.10872 20.1347 1.03922 20.1538 0.976828 20.1716C0.811747 20.2187 0.719882 20.2501 0.670428 20.2701C0.661639 20.2736 0.655481 20.2763 0.651641 20.2781M1.84792 22.0846C2.17797 22.5413 3.26439 23.618 4.19036 24.3967M1.84792 22.0846L4.19036 24.3967M1.19788 20.1109C1.28411 20.088 1.38025 20.063 1.48764 20.0356M1.19788 20.1109L6.99404 25.4635M0.651641 20.2781C0.648487 20.2797 0.646757 20.2805 0.646679 20.2805C0.646601 20.2805 0.648178 20.2796 0.651641 20.2781ZM0.651641 20.2781C0.664865 20.2711 0.703121 20.249 0.749622 20.2079C0.796719 20.1663 0.849354 20.1079 0.895117 20.0312C0.940942 19.9543 0.966835 19.881 0.981102 19.8226C0.989528 19.7882 0.998553 19.7377 0.999843 19.676C1.00116 19.6131 0.994148 19.5535 0.981643 19.5002C0.965309 19.4306 0.942852 19.386 0.936361 19.3742M0.936361 19.3742C0.935066 19.3721 0.934498 19.3711 0.93454 19.3711C0.934582 19.3711 0.935228 19.3722 0.936361 19.3742ZM0.936361 19.3742C0.936862 19.3751 0.93747 19.376 0.938194 19.3772C0.952543 19.3999 0.988972 19.4516 1.0702 19.5512C1.14867 19.6474 1.25382 19.77 1.39622 19.9323C1.42698 19.9668 1.45745 20.0013 1.48764 20.0356M1.48764 20.0356C1.53012 20.0248 1.57436 20.0135 1.62045 20.0019L1.6223 20.0014C3.13393 19.6169 3.90294 19.4592 8.99636 18.5161M1.48764 20.0356C1.92337 20.5311 2.30103 21.0055 2.65776 21.4979L2.65839 21.4988C2.91268 21.8507 3.91948 22.8623 4.83399 23.6313L4.8375 23.6343C4.87205 23.6636 4.92743 23.711 4.99692 23.7704C5.14522 23.8972 5.3578 24.079 5.56929 24.2578C5.87647 24.5174 6.5174 25.0598 6.99404 25.4635M8.99636 18.5161C8.9957 18.5162 8.99503 18.5164 8.99437 18.5165L8.81566 17.5326L8.99771 18.5159C8.99726 18.516 8.99681 18.516 8.99636 18.5161ZM8.99636 18.5161C9.58048 18.41 10.3843 18.2607 10.7907 18.1832C10.9542 18.1521 11.2141 18.1041 11.4764 18.0557C11.756 18.0042 12.0384 17.9521 12.2094 17.9193M12.2094 17.9193C12.2082 17.9195 12.2069 17.9198 12.2057 17.92L12.0245 16.9366L12.2129 17.9186C12.2117 17.9189 12.2106 17.9191 12.2094 17.9193ZM6.99404 25.4635C7.42059 25.8214 7.8221 26.1642 7.96062 26.2825C7.9794 26.2985 7.99334 26.3104 8.00186 26.3176L8.00187 26.3177L8.70739 26.9181C9.0243 27.1878 9.32334 27.4435 9.37511 27.4879L8.72397 28.2469M6.99404 25.4635L38.6875 17.8827C45.6889 18.641 46.4923 18.738 48.4157 19.0654C47.9553 19.5782 47.5305 20.0737 47.2502 20.4277C46.9671 20.7797 46.084 21.7149 45.7613 22.0077C45.5822 22.1622 45.3718 22.3519 45.2791 22.442C45.0817 22.631 44.8817 22.8138 44.6341 23.0242L44.6236 23.0331L44.6236 23.0332C44.5566 23.0918 44.4939 23.146 44.4423 23.1908C44.4237 23.2069 44.4059 23.2224 44.3902 23.2361C44.3848 23.2408 44.3798 23.2453 44.375 23.2495C44.3657 23.2576 44.3551 23.267 44.3449 23.2763C44.3399 23.2808 44.3329 23.2873 44.325 23.2946C44.3236 23.2959 44.3213 23.2981 44.3183 23.301C44.3177 23.3016 44.3169 23.3022 44.3161 23.303L44.2601 23.3518C44.2119 23.3936 44.144 23.4523 44.0736 23.5139C44.0256 23.5557 43.979 23.5959 43.9343 23.6343C43.9178 23.6485 43.9016 23.6625 43.8857 23.6762C43.858 23.7002 43.8297 23.7247 43.8055 23.7461C43.7934 23.7568 43.7796 23.7691 43.7659 23.7818C43.7638 23.7837 43.7611 23.7862 43.7579 23.7892C43.7565 23.7904 43.755 23.7917 43.7533 23.7931L43.7001 23.8375C43.6612 23.8699 43.6119 23.911 43.5632 23.9522C43.4394 24.0522 43.3132 24.1684 43.2705 24.2083L43.2489 24.2284L43.2391 24.2387C43.2376 24.2401 43.2358 24.2417 43.2337 24.2437C43.2212 24.2553 43.203 24.2717 43.1792 24.2929C43.132 24.3351 43.0711 24.3885 43.006 24.445C42.8828 24.552 42.7558 24.6606 42.6922 24.7138C42.6238 24.7679 42.5476 24.8373 42.488 24.8972L42.4719 24.9115C42.4546 24.9269 42.4325 24.9462 42.4071 24.9682C42.3566 25.0118 42.297 25.0625 42.2408 25.1088C42.1161 25.2106 41.9506 25.3542 41.8763 25.4321L41.876 25.4324C41.8693 25.4385 41.8596 25.4471 41.8466 25.4584C41.806 25.4935 41.7508 25.5399 41.6907 25.5895C41.6212 25.6462 41.5531 25.7038 41.4978 25.7525C41.4703 25.7765 41.4415 25.8024 41.4154 25.8269C41.4028 25.8388 41.3857 25.8552 41.3676 25.8737L41.3666 25.8747C41.3635 25.8778 41.3555 25.8859 41.3444 25.898C41.3347 25.9064 41.3226 25.9168 41.3086 25.9284C41.2936 25.9408 41.2778 25.9536 41.2621 25.9659L41.2543 25.9721L41.2466 25.9784C41.0753 26.1187 39.7847 27.2684 39.3815 27.6383C39.1017 27.893 38.7572 28.2559 38.4789 28.5709C38.338 28.7304 38.2044 28.8887 38.0975 29.0253C38.0447 29.0928 37.9915 29.1639 37.9452 29.2323L37.9448 29.2329C37.9272 29.2589 37.8916 29.3115 37.8542 29.3805C37.8143 29.4272 37.7832 29.4709 37.7618 29.5025C37.7179 29.5676 37.6796 29.6347 37.6494 29.6908C37.5874 29.806 37.523 29.9423 37.4636 30.0776C37.3468 30.3437 37.2173 30.6785 37.1405 30.9511L37.1399 30.9534C37.082 31.1606 37.0313 31.3541 37.0103 31.6028C36.992 31.8202 36.9985 32.0635 37.0072 32.3705L37.0074 32.3774C37.0427 33.3828 37.0948 33.6691 37.9896 38.5894L37.9901 38.5922L37.9906 38.5944C38.1863 39.6564 38.4025 40.8423 38.6106 41.9834C38.6801 42.3648 38.7487 42.7412 38.8154 43.1064L38.8156 43.1074C39.2294 45.3606 39.4811 47.051 39.5698 48.048C39.35 47.979 39.1192 47.9138 38.9604 47.8781C38.2169 47.7094 37.6611 47.5367 37.1768 47.3404L37.1741 47.3393C37.1783 47.341 37.1713 47.3382 37.1472 47.3272C37.1255 47.3173 37.0969 47.3038 37.061 47.2867C36.9894 47.2524 36.8975 47.2073 36.79 47.1537C36.5753 47.0467 36.308 46.9107 36.0355 46.7702C35.4878 46.4879 34.9594 46.2081 34.7856 46.1071C34.6414 46.0189 34.2477 45.8014 33.8982 45.6137C33.5243 45.4104 33.0849 45.1705 32.9151 45.0747L32.9088 45.0711C32.5919 44.8953 32.0695 44.6093 30.4475 43.73L30.4466 43.7295C28.248 42.5408 27.5843 42.2279 26.5285 41.9579L26.5152 41.9545L26.5152 41.9546C26.1997 41.8786 25.7436 41.8513 25.3752 41.8469C25.017 41.8427 24.5489 41.8574 24.2285 41.9372L24.2241 41.9383C23.0654 42.2323 22.1183 42.708 19.7705 44.0827L19.7639 44.0865L19.7639 44.0866C19.6395 44.1607 19.4618 44.2643 19.2877 44.366C19.1839 44.4266 19.0813 44.4864 18.9919 44.5389C18.064 45.0784 16.1236 46.2184 15.8209 46.399L15.8145 46.4029L15.8145 46.4029C15.7169 46.4622 15.5822 46.54 15.4381 46.6233C15.3295 46.6861 15.2156 46.7519 15.1082 46.8152C14.9936 46.8804 14.8828 46.9453 14.7949 46.9981L14.7939 46.9987C14.7368 47.033 14.6361 47.0934 14.5682 47.1419M6.99404 25.4635C6.9934 25.463 6.99277 25.4625 6.99213 25.4619L6.34944 26.228M6.99404 25.4635C6.99461 25.464 6.99517 25.4645 6.99573 25.465L6.34944 26.228M8.72397 28.2469L9.37512 27.4879C9.38393 27.4955 9.4042 27.5127 9.43326 27.5375C9.53461 27.6237 9.74281 27.8008 9.94381 27.9745M8.72397 28.2469C8.73613 28.2573 8.76054 28.2781 8.79425 28.3068C8.90038 28.3971 9.09868 28.5657 9.29697 28.7372M8.72397 28.2469C8.67355 28.2036 8.37558 27.9489 8.05929 27.6797L7.35334 27.0788M9.94381 27.9745C10.0794 28.0873 10.204 28.1936 10.2974 28.2743C10.3449 28.3153 10.3853 28.3506 10.4157 28.3775L10.4176 28.3791C10.4262 28.3866 10.4583 28.4147 10.49 28.445M9.94381 27.9745C9.94134 27.9724 9.93887 27.9704 9.93639 27.9683L9.29697 28.7372M9.94381 27.9745C9.94621 27.9766 9.94862 27.9787 9.95102 27.9807L9.29697 28.7372M10.49 28.445L10.5017 28.4555C10.5165 28.4688 10.5384 28.4882 10.5666 28.5131C10.6227 28.5626 10.698 28.6286 10.7801 28.7004L10.7831 28.703C11.0508 28.9388 11.4219 29.3168 11.7416 29.6625C12.0437 29.9892 12.3846 30.3775 12.542 30.6195L12.5445 30.6235C13.1586 31.5778 13.4285 32.4773 13.4233 33.5945M10.49 28.445C10.4905 28.4454 10.491 28.4459 10.4914 28.4463M10.49 28.445L10.489 28.4441C10.4885 28.4436 10.4895 28.4445 10.4914 28.4463M13.4233 33.5945C13.423 34.4452 13.2966 35.2634 12.9097 37.2446L12.9091 37.2476C12.7443 38.078 12.5935 38.854 12.5713 38.9707C12.5478 39.0937 12.4053 39.8312 12.249 40.6123M13.4233 33.5945C13.4233 33.5937 13.4233 33.5929 13.4233 33.592H12.4233M13.4233 33.5945C13.4233 33.5954 13.4233 33.5962 13.4233 33.597L12.4233 33.592M12.249 40.6123C11.6196 43.8012 11.2756 45.6113 11.16 46.3341L11.16 46.3341L11.1593 46.3384C11.0604 46.9395 10.9598 47.7423 10.8907 48.4239C10.8794 48.5346 10.8691 48.6411 10.8599 48.7422M12.249 40.6123C12.249 40.612 12.2491 40.6116 12.2492 40.6113L11.2681 40.4177M12.249 40.6123C12.2489 40.6128 12.2488 40.6134 12.2487 40.6139L11.2681 40.4177M10.8599 48.7422C11.162 48.632 11.5166 48.508 11.7538 48.4289L11.7606 48.4266L11.7675 48.4244C12.054 48.3334 12.4628 48.1885 12.6559 48.11M10.8599 48.7422C10.7634 48.7774 10.6723 48.8112 10.5921 48.8416L10.5866 48.8437L10.5866 48.8437C10.3921 48.9189 10.2625 48.9628 10.1754 48.9864C10.1294 48.9989 10.1092 49.0017 10.1092 49.0017C10.1092 49.0017 10.1353 48.9982 10.1787 49.0013C10.2284 49.0048 10.3083 49.0175 10.4012 49.0585C10.4981 49.1013 10.5836 49.1638 10.6518 49.238C10.738 49.3319 10.7737 49.4198 10.7849 49.4534C10.7858 49.456 10.7865 49.4582 10.7871 49.4602C10.7873 49.461 10.7875 49.4619 10.7877 49.4628C10.8003 49.5161 10.8048 49.5591 10.8062 49.5785M10.8599 48.7422C10.8407 48.9519 10.826 49.138 10.8168 49.2892C10.8139 49.3362 10.8116 49.3782 10.81 49.4151C10.8099 49.417 10.8098 49.4189 10.8097 49.4207C10.8075 49.4701 10.8063 49.5102 10.806 49.5413C10.8059 49.5585 10.806 49.5707 10.8062 49.5785M12.6559 48.11C12.8033 48.05 13.2627 47.8262 13.7384 47.5833C13.9673 47.4664 14.1846 47.3529 14.3495 47.2639C14.4326 47.2191 14.4972 47.1832 14.5413 47.1577C14.5528 47.1511 14.5617 47.1459 14.5682 47.1419M12.6559 48.11L13.033 49.0362L12.6563 48.1099C12.6562 48.1099 12.656 48.11 12.6559 48.11ZM14.5682 47.1419C14.5731 47.139 14.5766 47.1368 14.5791 47.1353M14.5682 47.1419C14.5623 47.1461 14.5567 47.1503 14.5513 47.1543L14.5273 47.1722L14.5045 47.1916C14.522 47.1767 14.5383 47.1642 14.5515 47.1546C14.5641 47.1453 14.5739 47.1387 14.5791 47.1353M14.5791 47.1353C14.582 47.1335 14.5833 47.1327 14.5832 47.1327C14.5831 47.1327 14.5817 47.1336 14.5791 47.1353ZM10.8062 49.5785C10.8067 49.5856 10.8068 49.5896 10.8067 49.5898C10.8066 49.59 10.8064 49.5865 10.8062 49.5785ZM11.2681 40.4177C11.424 39.639 11.5661 38.9035 11.589 38.7834C11.6119 38.6632 11.7632 37.8845 11.9282 37.0529M11.2681 40.4177C10.6401 43.5997 10.2917 45.4311 10.1725 46.1762C9.96624 47.4307 9.75996 49.4736 9.81497 49.6947C9.90665 50.0793 10.1267 50.0937 10.9472 49.7765C11.2635 49.6563 11.7678 49.4784 12.0703 49.3775C12.3729 49.2814 12.8083 49.1275 13.033 49.0362C13.4226 48.8776 15.0316 48.0556 15.1508 47.9547C15.1829 47.9306 15.3892 47.8057 15.6092 47.6807C15.7002 47.627 15.8101 47.5634 15.92 47.4998L11.9282 37.0529M11.9282 37.0529C12.3179 35.0581 12.4233 34.3323 12.4233 33.592M11.9282 37.0529L11.7036 31.1646M4.19036 24.3967C4.21994 24.4218 4.27158 24.4659 4.33785 24.5226C4.48727 24.6504 4.71104 24.8417 4.92381 25.0215C5.23094 25.2811 5.8727 25.8243 6.34944 26.228M4.19036 24.3967L7.35334 27.0788M7.35334 27.0788C7.3445 27.0713 7.33019 27.0591 7.31101 27.0427C7.17118 26.9233 6.77272 26.5831 6.34944 26.228M7.35334 27.0788L9.29697 28.7372M12.4233 33.592C12.4279 32.6739 12.217 31.9625 11.7036 31.1646M11.7036 31.1646C11.4973 30.8474 10.5805 29.8572 10.1221 29.4534C9.95708 29.3092 9.81497 29.1842 9.80122 29.1698M11.7036 31.1646L9.80122 29.1698M10.4914 28.4463C10.503 28.4574 10.5146 28.4688 10.5249 28.4796L10.5249 28.4797C10.5081 28.4621 10.4947 28.4494 10.4937 28.4484L10.4936 28.4484C10.4928 28.4476 10.492 28.4469 10.4914 28.4463ZM9.29697 28.7372C9.56285 28.9583 9.78747 29.1554 9.80122 29.1698M9.29697 28.7372L9.80122 29.1698M49.4209 19.2716C49.4213 19.2716 49.4187 19.2704 49.4127 19.2683C49.4177 19.2705 49.4205 19.2715 49.4209 19.2716ZM40.2619 48.2606C40.2618 48.2605 40.2583 48.26 40.2518 48.2597C40.2588 48.2606 40.262 48.2608 40.2619 48.2606ZM10.7877 49.4628C10.7896 49.4706 10.7897 49.4691 10.7871 49.4603L10.7877 49.4628Z" stroke="#BEBDBD" stroke-width="2"/>
</svg>
