<svg width="50" height="50" xmlns="http://www.w3.org/2000/svg" version="1.0" preserveAspectRatio="xMidYMid meet">
 <g>
  <title>Layer 1</title>
  <g transform="translate(0 50) scale(0.1 -0.1)" fill="#000000" id="svg_1">
   <path stroke="#fff" fill="#444444" d="m206,416c-37,-81 -40,-83 -153,-101c-24,-4 -43,-10 -43,-14c0,-4 27,-33 60,-65c33,-32 60,-61 60,-66c0,-4 -7,-42 -16,-85c-9,-42 -14,-78 -12,-81c2,-2 20,5 39,15c19,10 51,28 72,39l39,20l71,-34c82,-39 86,-37 68,47c-19,88 -16,100 44,159c30,30 55,57 55,61c0,4 -33,10 -74,14c-40,4 -78,10 -83,14c-6,3 -27,39 -47,79c-20,39 -38,72 -41,72c-2,0 -20,-33 -39,-74zm79,-15c37,-74 40,-76 128,-87c31,-3 57,-9 57,-13c0,-3 -23,-25 -50,-49c-56,-48 -60,-65 -39,-162c6,-28 8,-54 5,-57c-3,-3 -35,9 -70,27l-65,32l-64,-36c-35,-19 -67,-33 -69,-30c-3,2 1,35 8,71c8,36 12,74 9,85c-4,10 -29,37 -56,60c-27,22 -49,45 -49,49c0,4 26,13 58,19c85,17 98,26 128,96c15,35 29,64 30,64c2,0 19,-31 39,-69z" id="svg_2"/>
  </g>
 </g>

</svg>